<?xml version="1.0" encoding="UTF-8"?>
<svg width="242px" height="164px" viewBox="0 0 242 164" version="1.1" xmlns="http://www.w3.org/2000/svg" xmlns:xlink="http://www.w3.org/1999/xlink">
    <!-- Generator: Sketch 48.2 (47327) - http://www.bohemiancoding.com/sketch -->
    <title>Group 2</title>
    <desc>Created with Sketch.</desc>
    <defs>
        <polygon id="path-1" points="0.0144329897 0.158278431 0.0144329897 72.1309052 69.9218703 72.1309052 69.9218703 0.158278431 0.0144329897 0.158278431"></polygon>
    </defs>
    <g id="Artboard-Copy-12" stroke="none" stroke-width="1" fill="none" fill-rule="evenodd" transform="translate(-388.000000, -311.000000)">
        <g id="Card2" transform="translate(388.000000, 311.000000)">
            <g id="Group-2">
                <path d="M4,0 L237.834852,0 C240.043991,1.52910644e-14 241.834852,1.790861 241.834852,4 L241.834852,163.660004 L0,163.660004 L0,4 C-2.705415e-16,1.790861 1.790861,4.05812251e-16 4,0 Z" id="Rectangle-Copy" fill="#F36F7F"></path>
                <g id="medal-1" transform="translate(86.000000, 35.000000)">
                    <g id="Group-3">
                        <mask id="mask-2" fill="white">
                            <use xlink:href="#path-1"></use>
                        </mask>
                        <g id="Clip-2"></g>
                        <path d="M69.6889691,42.9685969 L65.0894158,36.628801 C64.8009966,36.2216582 64.7822337,35.6594133 65.0706529,35.2522704 L69.5735052,28.8547959 C69.9773883,28.2734056 69.7856701,27.4583929 69.1693814,27.1290434 L62.2995189,23.4264668 C61.8569072,23.1935714 61.6069759,22.6890051 61.7029553,22.1854082 L62.9920619,14.4492092 C63.1077663,13.7514923 62.5881787,13.0927934 61.8759107,13.0729209 L54.1010997,12.7433291 C53.6012371,12.724426 53.1586254,12.3752041 53.0234364,11.8905102 L50.8688316,4.32952806 C50.6761512,3.65071429 49.9253952,3.28234694 49.2713402,3.57292092 L42.1120962,6.67520408 C41.6507216,6.86932398 41.1114089,6.75299745 40.7657388,6.3846301 L35.5693814,0.548431122 C35.0882818,0.0249617347 34.2802749,0.0249617347 33.7991753,0.568303571 L28.6800344,6.48108418 C28.3528866,6.86932398 27.8145361,6.98589286 27.3521993,6.79177296 L20.1554296,3.80581633 C19.5004124,3.53414541 18.7693814,3.90251276 18.5769416,4.58132653 L16.5180756,12.1423087 C16.3836082,12.6270026 15.96,12.9762245 15.4601375,13.015 L7.68532646,13.4609184 C6.97305842,13.4996939 6.47223368,14.1586352 6.58793814,14.856352 L7.99274914,22.5726786 C8.08945017,23.0772449 7.8385567,23.5808418 7.4156701,23.8137372 L0.603298969,27.6137372 C-0.0122680412,27.9629592 -0.185945017,28.7770026 0.217938144,29.3394898 L4.81749141,35.6792857 C5.1061512,36.0864286 5.12587629,36.6486735 4.83721649,37.0558163 L0.333642612,43.4532908 C-0.0704810997,44.0354082 0.122199313,44.8496939 0.737525773,45.1790434 L7.60835052,48.8823469 C8.0509622,49.1152423 8.30089347,49.6188393 8.20491409,50.123648 L6.91484536,57.8586352 C6.80034364,58.556352 7.31896907,59.2162628 8.03123711,59.2351658 L15.8058076,59.5647577 C16.3066323,59.5846301 16.749244,59.9328827 16.8837113,60.4175765 L19.0580412,67.9596556 C19.2504811,68.6384694 20.0012371,69.0065944 20.6552921,68.7160204 L27.8145361,65.6137372 C28.2759107,65.4198597 28.8152234,65.5361862 29.161134,65.9045536 L34.3572509,71.7407526 C34.8383505,72.2642219 35.6465979,72.2642219 36.1276976,71.7208801 L41.2468385,65.8078571 C41.5737457,65.4198597 42.1120962,65.3032908 42.574433,65.4974107 L49.7712027,68.483125 C50.4262199,68.7547959 51.1572509,68.3866709 51.3499313,67.7078571 L53.4085567,60.146875 C53.5430241,59.6621811 53.9668729,59.3127168 54.4667354,59.2739413 L62.2413058,58.828023 C62.9535739,58.7892474 63.4543986,58.1305485 63.3389347,57.4328316 L61.9341237,49.7155357 C61.8371821,49.2119388 62.0880756,48.7083418 62.5109622,48.4754464 L69.3235739,44.6754464 C69.9389003,44.365 70.1128179,43.5507143 69.6889691,42.9685969 L69.6889691,42.9685969 Z M34.9728179,57.4517347 C23.3304467,57.4517347 13.842921,47.8930867 13.842921,36.1639796 C13.842921,24.4348724 23.3304467,14.8762245 34.9728179,14.8762245 C46.6159107,14.8762245 56.1027148,24.4348724 56.1027148,36.1639796 C56.1027148,47.9129592 46.6159107,57.4517347 34.9728179,57.4517347 L34.9728179,57.4517347 Z" id="Fill-1" fill="#FFFFFF" mask="url(#mask-2)"></path>
                    </g>
                    <path d="M54.0053608,71.2172832 C52.8889691,72.360676 51.3302062,73.0394898 49.6557388,73.0394898 C49.0598969,73.0394898 48.4633333,72.9430357 47.9050172,72.7876913 L42.9400687,71.2749617 L39.1100344,74.8040179 C38.975567,74.9196173 38.8601031,75.0359439 38.7256357,75.1336097 L44.8832302,94.3660204 C45.0956357,95.0448342 45.9608935,95.2001786 46.4035052,94.6376913 L50.8875945,88.8402679 C51.0990378,88.5496939 51.4841581,88.4333673 51.8113058,88.5298214 L58.7966323,90.5851658 C59.4704124,90.7790434 60.086701,90.1392474 59.8742955,89.4803061 L54.0053608,71.2172832 Z" id="Fill-4" fill="#FFFFFF"></path>
                    <path d="M27.0252921,71.2749617 L22.0601031,72.7876913 C21.4832646,72.9619388 20.9052234,73.0394898 20.3086598,73.0394898 C18.6351546,73.0394898 17.0949141,72.360676 15.96,71.2172832 L10.0908247,89.4992092 C9.87841924,90.178023 10.4949485,90.7989158 11.1677663,90.6050383 L18.154055,88.5496939 C18.4997251,88.4532398 18.8653608,88.5685969 19.0777663,88.8601403 L23.5616151,94.6565944 C23.9845017,95.2190816 24.8697251,95.0637372 25.0821306,94.3849235 L31.2394845,75.1525128 C31.1052577,75.0558163 30.9698282,74.9394898 30.8553265,74.8229209 L27.0252921,71.2749617 Z" id="Fill-5" fill="#FFFFFF"></path>
                    <path d="M47.501134,30.8711224 L39.5338832,30.2899745 L36.5315808,22.8443495 C35.9735052,21.4489158 33.9918557,21.4489158 33.4335395,22.8443495 L30.4314777,30.2899745 L22.4642268,30.8711224 C20.9634364,30.9876913 20.3668729,32.8675765 21.5020275,33.8369643 L27.6021306,39.0333673 L25.697457,46.846148 C25.3320619,48.320102 26.9293127,49.4836097 28.1989347,48.6884694 L34.9728179,44.442551 L41.746701,48.6884694 C43.0170447,49.4836097 44.6145361,48.320102 44.2489003,46.846148 L42.3432646,39.0333673 L48.4436082,33.8369643 C49.598488,32.8675765 49.0016838,30.9876913 47.501134,30.8711224 L47.501134,30.8711224 Z" id="Fill-6" fill="#FFFFFF"></path>
                </g>
            </g>
        </g>
    </g>
</svg>